<?xml version="1.0" encoding="UTF-8" standalone="no"?>
<!-- Created with Inkscape (http://www.inkscape.org/) -->

<svg
   width="99.812759mm"
   height="109.78944mm"
   viewBox="0 0 99.812759 109.78944"
   version="1.1"
   id="svg1"
   xml:space="preserve"
   xmlns="http://www.w3.org/2000/svg"
   xmlns:svg="http://www.w3.org/2000/svg"><defs
     id="defs1" /><g
     id="layer1"
     transform="translate(-58.959442,-89.600716)"><g
       style="display:block"
       id="g1"
       transform="matrix(0.26458333,0,0,0.26458333,42.017425,80.78804)"><path
         d="m 0,0 6.9971619,-0.02146912 c 2.5561373,0.0022938 5.1122741,0.0048035 7.6684111,0.0075073 2.694134,-0.0043476 5.388267,-0.0095309 8.082398,-0.01548767 7.316153,-0.01339671 14.632254,-0.01396786 21.948417,-0.0114367 6.10835,0.0010693 12.216689,-0.0038128 18.325037,-0.0086054 14.411827,-0.01109773 28.823628,-0.01153123 43.235455,-0.0054858 14.86495,0.0060396 29.72981,-0.0062704 44.59474,-0.02757007 12.76453,-0.01761713 25.52903,-0.02361713 38.29357,-0.02036225 7.6227,0.001813 15.24534,-8.2469e-4 22.86803,-0.0147145 7.16965,-0.0125753 14.33916,-0.0106369 21.50881,0.002411 2.62911,0.002366 5.25823,-3.6985e-4 7.88733,-0.008623 3.5937,-0.0104665 7.1869,-0.002367 10.78058,0.0103111 l 6.0898,-5.0831e-4 c 8.47883,0.57708755 15.46528,2.97201702 22.75571,7.24973012 l 3.45312,1.9921875 c 9.29688,6.0143288 25.07168,24.5297718 24.6875,53.8085938 -0.006,1.646309 -0.0113,3.292618 -0.0171,4.988815 -0.0222,5.216274 -0.0724,10.43184 -0.12347,15.647903 -0.0201,3.554027 -0.0383,7.108064 -0.0547,10.66211 -0.0439,8.675404 -0.11286,17.350274 -0.19531,26.025394 -1.60328,0.0198 -3.20655,0.0396 -4.8584,0.0601 -5.9938,0.0785 -11.98736,0.16517 -17.98096,0.25732 -2.58557,0.0381 -5.17118,0.073 -7.75684,0.10449 -3.73374,0.0461 -7.46714,0.104 -11.20068,0.16406 -2.24136,0.0314 -4.48271,0.0628 -6.79199,0.0952 -25.58267,1.27232 -18.15766,3.76657 -27.25439,7.57258 -1.95621,0.81847 -2.99206,-2.2028 -3.84424,-4.19123 -22.25041,-42.314254 -54.08737,-66.256492 -103.238,-66.256492 -65.796605,0 -111.322047,47.175642 -111.322047,102.123322 0,52.33481 22.289633,114.21001 93.469217,114.21001 58.99271,0 86.72214,-9.86205 115.03425,-53.13934 2.77609,-2.77609 3.09855,-14.17438 8.82058,-12.64117 18.84781,15.95762 51.69187,9.25299 76.9235,9.64117 0.092,10.31946 0.17163,20.63748 0.21972,30.95703 0.0201,3.50721 0.0473,7.01439 0.082,10.52148 0.0488,5.05412 0.0713,10.1078 0.0889,15.16211 0.0207,1.55673 0.0413,3.11345 0.0626,4.71735 0.004,21.07354 -9.3221,39.00566 -27.45318,50.64203 -10.04091,4.50816 -18.07743,7.25022 -29.08998,7.24723 -3.45976,0.006 -3.45976,0.006 -6.9894,0.0127 -2.55826,-0.005 -5.11652,-0.0112 -7.67477,-0.017 -2.69225,0.001 -5.3845,0.003 -8.07674,0.006 -7.31382,0.005 -14.62758,-0.003 -21.94139,-0.0129 -7.64772,-0.009 -15.29544,-0.007 -22.94316,-0.007 -12.84267,-9.4e-4 -25.68531,-0.01 -38.52797,-0.0233 -14.85762,-0.0157 -29.7152,-0.021 -44.57282,-0.0203 -14.281723,6.1e-4 -28.563433,-0.004 -42.845149,-0.0128 -6.083228,-0.004 -12.166454,-0.005 -18.249683,-0.006 -7.159733,-10e-4 -14.319443,-0.007 -21.479168,-0.0172 -2.63121,-0.003 -5.262422,-0.004 -7.893633,-0.004 -3.5843835,4.9e-4 -7.168766,-0.006 -10.7531434,-0.0124 -2.0081683,-0.002 -4.0163367,-0.003 -6.0853586,-0.005 -4.6317389,-0.12215 -30.218953,-2.30853 -46.877639,-35.12863 -2.487704,-7.10257 -3.372132,-13.14461 -3.360763,-20.65555 -0.0041,-2.10887 -0.0082,-4.21774 -0.0125,-6.39052 0.01079,-2.29238 0.02157,-4.58476 0.03268,-6.94661 8.47e-4,-2.45465 3.7e-4,-4.90929 -0.0013,-7.36394 -8.59e-4,-6.64595 0.01675,-13.29175 0.03772,-19.93767 0.01878,-6.95201 0.02052,-13.90404 0.02408,-20.85607 0.0093,-13.15674 0.03392,-26.3134 0.06405,-39.4701 0.03355,-14.9818 0.05003,-29.9636 0.06509,-44.94543 C -55.334077,104.88282 -65.056238,14.811337 -18.214446,2.2601167 -12.110968,0.00853651 -6.4771102,0.00662018 0,0 Z"
         transform="translate(120.21455,110.7393)"
         style="fill:#544f57;fill-opacity:1"
         id="path2" /><path
         d="M 3.7646484,-0.00195312 C 50.866865,-0.83048684 80.847525,36.432466 94.5625,60.1875 c 4.244442,7.35159 0.112773,12.543312 -3.529873,20.375 -4.516396,10.161892 -6.020773,22.53464 0.529873,31.625 3.712676,6.93187 4.131419,11.25263 3,19 -21.437505,41.02752 -46.497713,56.75948 -94.92513246,61.77614 -81.66700754,0 -93.22290954,-78.34233 -93.19986754,-96.77614 0,-51.120979 43.143989,-96.1613426 97.3271484,-96.18945312 z"
         transform="translate(241.4375,180.8125)"
         style="fill:#f5f56a;fill-opacity:1"
         id="path3" /><path
         d="m 0,0 h 14 v 18 h 8 V 0 h 13 v 17 c 1.4025,-0.02062 2.805,-0.04125 4.25,-0.0625 C 61.405908,19.760978 69.356387,38.287225 60,57 c -2.070556,3.519945 -4.104599,6.104599 -7,9 l 5,2 c 18.140089,11.27551 19.765961,53 -21,53 v 18 H 24 v -18 h -7 v 19 H 3 V 121 H -22 V 106 H -9 V 32 H -23 V 17 H 0 Z m 8,32 v 30 c 5.903866,0.157956 11.807597,0.308441 17.708984,0.540527 24.844683,0 28.824992,-31.110495 0.663262,-31.110495 z m 0,43 v 31 c 7.239375,0.0619 7.239106,0.125 14.625,0.125 29.751246,0 36.050021,-31.187466 0,-31.187466 C 15.385625,74.968437 15.385625,74.968437 8,75 Z"
         transform="translate(223,208)"
         style="fill:#201f21;fill-opacity:1"
         id="path4" /><path
         d="m 0,0 4.4749451,-0.01008606 c 3.1219552,-0.0050641 6.2439159,-0.0074085 9.3658749,-0.0072479 4.795337,-0.0021917 9.590446,-0.02036749 14.385742,-0.03930664 C 31.255208,-0.0595735 34.283854,-0.061559 37.3125,-0.0625 l 4.371735,-0.02177429 c 10.110377,0.02341731 10.110377,0.02341731 12.339202,2.25224309 0.201745,5.018483 0.279441,9.9807272 0.265625,15.0000002 0.0019,1.501758 0.0038,3.003515 0.0058,4.550781 0.0014,3.180991 -0.0023,6.361988 -0.01068,9.542969 -0.0107,4.885543 -1.1e-4,9.770718 0.0127,14.65625 -0.0013,3.083334 -0.0039,6.166668 -0.0078,9.25 0.004,1.47082 0.0081,2.94164 0.01227,4.457031 -0.04799,10.313066 -0.04799,10.313066 -2.277894,12.542969 -5.081993,0.239186 -10.107102,0.352826 -15.191406,0.371093 -1.529548,0.009 -3.059096,0.01806 -4.634994,0.02736 -3.245754,0.01454 -6.491536,0.0234 -9.73732,0.02708 -4.953878,0.01185 -9.906494,0.06098 -14.8601076,0.111572 -3.1516867,0.0095 -6.3033809,0.0167 -9.4550781,0.02148 l -4.4801179,0.05919 C -19.738267,72.727324 -28.617647,67.939945 -37.226541,57.417962 c -7.807745,-14.500097 -7.723679,-28.074573 0.25,-42.25 5.17647,-6.7941179 10,-10.0000003 10,-10.0000003 C -17.69493,0.37245854 -10.346507,0.00800337 0,0 Z"
         transform="translate(386.97656,243.83203)"
         style="fill:#544f57;fill-opacity:1"
         id="path5" /><path
         d="M 0,0 C 10.679747,12.174912 6.7529599,18.944857 6.7529599,38.5625 H -164.875 c 21.12512,-10.881268 47.98875,-17.334088 71,-25 l 4.679688,-1.550781 C -84.699663,10.503684 -80.22363,8.9471188 -75.75,7.375 -68.003067,4.6577922 -60.253318,1.9489399 -52.5,-0.75 l 5.710938,-1.9882813 C -29.528352,-8.7068098 -14.930223,-13.244553 0,0 Z"
         transform="translate(345.875,59.4375)"
         style="fill:#201f21;fill-opacity:1"
         id="path6" /><path
         d="M 18.195312,32.390625 C 18.193181,32.862137 18.106391,46.620996 18,57 H -0.68602006 C 3.8568438,4.6999727 -34.465767,9.3589482 -72.361328,22.972656 -104.15141,34.24077 -138.98912,45.666175 -170.78097,56.94194 c 0,0.198772 -7.79306,0.168868 -13.42215,0.155716 -1.19293,-0.0014 -2.38586,-0.0028 -3.61493,-0.0043 -3.81068,-0.0056 -7.62129,-0.01815 -11.43195,-0.03087 -2.58333,-0.005 -5.16667,-0.0096 -7.75,-0.01367 -6.33335,-0.01103 -12.66667,-0.02829 -19,-0.04883 C -165.73006,34.233718 -104.13733,15.25013 -43,-5 -8.9860741,-16.337976 18.364405,10.439376 18.195312,32.390625 Z"
         transform="translate(353,41)"
         style="fill:#544f57;fill-opacity:1"
         id="path7" /><path
         d="m 2.8337888,11.348361 c 0,10.841109 -7.6265559,16.608265 -15.1382058,16.608265 -6.839721,0 -15.323543,-5.262437 -15.323543,-15.531762 -0.115502,-11.58715118 7.252122,-16.7440805 15.406192,-16.7440805 8.5762251,0 15.0555568,6.6502413 15.0555568,15.6675775 z"
         transform="translate(395,269)"
         style="fill:#201f21;fill-opacity:1"
         id="path10" /></g></g></svg>
